#!OML:ASF F:\VICON\USERDATA\INSTALL\Justin_Nancy\Justin_Nancy.ASF
:FULLY-SPECIFIED
:DEGREES
67
root -8.45887 17.1207 -19.4036 -1.68309 -3.54091 5.28431
lowerback 6.85942 0.356454 -4.98651
upperback -0.331233 0.0820891 0.361463
thorax -4.20567 0.153763 3.17105
lowerneck -14.5225 -3.1123 -11.2179
upperneck 23.7908 -2.68086 4.5102
head 10.226 -1.73381 3.13452
rclavicle -3.71479e-015 -7.15625e-015
rhumerus -34.6159 -14.1195 -78.4257
rradius 31.5553
rwrist 5.56182
rhand -15.7717 13.5036
rfingers 7.12502
rthumb 10.4204 -16.2182
lclavicle -3.71479e-015 -7.15625e-015
lhumerus -32.9904 6.49011 85.5128
lradius 24.9551
lwrist -6.84573
lhand -15.8403 25.1834
lfingers 7.12502
lthumb 10.3542 54.9085
rfemur -30.8725 -3.72385 13.3914
rtibia 62.6696
rfoot -11.2124 -4.03792
rtoes -4.03614
lfemur -6.90176 -3.55196 -33.5192
ltibia 31.3784
lfoot -18.1167 -4.41942
ltoes 7.65919
68
root -8.45944 17.1073 -19.1795 -1.66569 -3.30621 5.56099
lowerback 7.07182 0.295913 -5.31929
upperback -0.442621 -0.0433287 0.323854
thorax -4.43112 0.106898 3.33347
lowerneck -14.175 -3.01728 -11.2036
upperneck 23.5844 -2.59859 4.53736
head 10.0769 -1.68995 3.15101
rclavicle 3.06874e-015 7.95139e-016
rhumerus -35.4557 -13.7238 -78.3326
rradius 31.7441
rwrist 5.47881
rhand -15.1078 13.7644
rfingers 7.12502
rthumb 11.0608 -15.9242
lclavicle 3.06874e-015 7.95139e-016
lhumerus -32.8153 5.45741 85.7537
lradius 25.9891
lwrist -6.06804
lhand -15.8684 25.4101
lfingers 7.12502
lthumb 10.3271 55.1366
rfemur -31.5952 -3.39636 13.0593
rtibia 60.3443
rfoot -11.2265 -4.28054
rtoes -6.73381
lfemur -5.77292 -3.17161 -33.9501
ltibia 30.8577
lfoot -18.6047 -4.41485
ltoes 6.5272
69
root -8.45985 17.1064 -18.9564 -1.55584 -3.04336 5.73076
lowerback 7.12756 0.171384 -5.497
upperback -0.512835 -0.231077 0.297491
thorax -4.51775 0.0216952 3.4269
lowerneck -13.8833 -2.88059 -11.1768
upperneck 23.4374 -2.44803 4.5397
head 9.95383 -1.6171 3.16578
rclavicle 7.23079e-015 9.54166e-015
rhumerus -36.1917 -13.0153 -78.4733
rradius 32.0185
rwrist 5.23888
rhand -14.9073 13.8097
rfingers 7.12502
rthumb 11.2542 -15.8684
lclavicle 7.23079e-015 9.54166e-015
lhumerus -32.5787 4.7729 85.8335
lradius 26.996
lwrist -5.76898
lhand -15.5143 25.516
lfingers 7.12502
lthumb 10.6687 55.2251
rfemur -32.2588 -2.96852 12.7512
rtibia 57.7834
rfoot -10.6336 -4.76396
rtoes -4.59093
lfemur -4.67246 -3.00381 -34.2729
ltibia 30.2878
lfoot -19.0269 -4.23002
ltoes 6.44617
70
root -8.46378 17.0998 -18.7344 -1.16314 -3.094 5.69281
lowerback 6.79572 0.186155 -5.56682
upperback -0.487263 -0.193457 0.347595
thorax -4.30722 0.0360181 3.51243
lowerneck -13.9766 -2.89403 -11.1743
upperneck 23.2392 -2.45498 4.54883
head 9.90123 -1.61298 3.16405
rclavicle -3.05631e-015 5.56597e-015
rhumerus -36.6361 -12.8592 -78.4545
rradius 32.1571
rwrist 5.07693
rhand -14.6093 13.9763
rfingers 7.12502
rthumb 11.5416 -15.6859
lclavicle -3.05631e-015 5.56597e-015
lhumerus -31.9369 4.07518 85.9764
lradius 27.9582
lwrist -5.18075
lhand -15.309 25.9341
lfingers 7.12502
lthumb 10.8667 55.6329
rfemur -33.0849 -2.17524 12.6521
rtibia 55.0079
rfoot -10.2149 -5.58969
rtoes -1.56086
lfemur -3.95923 -2.79791 -34.345
ltibia 29.7168
lfoot -19.2914 -3.91111
ltoes 6.70475
71
root -8.46898 17.075 -18.5122 -0.761837 -3.36462 5.85141
lowerback 6.67537 0.297089 -5.88484
upperback -0.647051 -0.0678886 0.36499
thorax -4.42019 0.112848 3.6968
lowerneck -14.0529 -2.95888 -11.0836
upperneck 23.1445 -2.52029 4.39926
head 9.88536 -1.64887 3.08511
rclavicle 8.58501e-015 -1.03368e-014
rhumerus -37.2848 -12.8072 -78.2867
rradius 32.2072
rwrist 5.03963
rhand -14.7364 13.561
rfingers 7.12502
rthumb 11.419 -16.1081
lclavicle 8.58501e-015 -1.03368e-014
lhumerus -31.5474 3.266 86.1623
lradius 29.0049
lwrist -4.09072
lhand -15.2056 26.78
lfingers 7.12502
lthumb 10.9665 56.4736
rfemur -33.8432 -1.16579 12.2758
rtibia 52.0149
rfoot -9.55691 -6.25527
rtoes -0.446108
lfemur -3.30068 -2.4231 -34.6487
ltibia 29.1302
lfoot -19.4536 -3.60611
ltoes 6.58389
72
root -8.47212 17.0558 -18.2857 -0.472815 -3.15281 5.98267
lowerback 6.73516 0.165034 -6.1596
upperback -0.810071 -0.271304 0.463253
thorax -4.6025 0.0297353 3.97702
lowerneck -14.1637 -2.92905 -11.0934
upperneck 23.0831 -2.40781 4.1857
head 9.87425 -1.61914 3.02352
rclavicle 4.5969e-015 1.59028e-015
rhumerus -37.7632 -12.5572 -78.0648
rradius 31.9798
rwrist 5.22406
rhand -14.9826 13.3025
rfingers 7.12502
rthumb 11.1815 -16.3795
lclavicle 4.5969e-015 1.59028e-015
lhumerus -31.3619 3.35865 86.047
lradius 30.4557
lwrist -4.08588
lhand -14.4762 26.883
lfingers 7.12502
lthumb 11.6699 56.538
rfemur -34.2701 -0.487197 11.8206
rtibia 48.7903
rfoot -7.93774 -6.7278
rtoes -0.561943
lfemur -2.35938 -2.30558 -34.9173
ltibia 28.4353
lfoot -19.6748 -3.45606
ltoes 5.58133
73
root -8.47454 17.0438 -18.0532 -0.273708 -2.91019 5.8214
lowerback 6.68917 0.0440753 -6.13576
upperback -0.818982 -0.420724 0.615574
thorax -4.56773 -0.0437537 4.13859
lowerneck -14.3744 -2.92029 -11.0826
upperneck 23.0915 -2.33996 4.05955
head 9.9109 -1.59924 2.98468
rclavicle -1.03865e-014 6.36111e-015
rhumerus -38.1696 -12.5902 -77.7912
rradius 31.8104
rwrist 5.54223
rhand -14.8971 14.054
rfingers 7.12502
rthumb 11.264 -15.6235
lclavicle -1.03865e-014 6.36111e-015
lhumerus -31.0502 3.22274 85.936
lradius 31.9916
lwrist -4.03801
lhand -13.9075 27.0185
lfingers 7.12502
lthumb 12.2183 56.6416
rfemur -34.4455 0.367214 11.5827
rtibia 45.3629
rfoot -6.1011 -7.13793
rtoes -0.734241
lfemur -1.20407 -2.25373 -34.8666
ltibia 27.582
lfoot -19.8082 -3.29266
ltoes 5.47187
74
root -8.47652 17.0446 -17.8158 -0.120348 -2.98827 5.76367
lowerback 6.59926 0.103643 -6.13084
upperback -0.730364 -0.330428 0.652898
thorax -4.43431 -0.00515637 4.16425
lowerneck -14.6919 -2.9717 -11.0672
upperneck 23.0412 -2.38194 4.08682
head 9.95664 -1.60982 2.98426
rclavicle 1.59525e-014 7.95139e-016
rhumerus -38.6623 -12.5272 -77.7178
rradius 32.0838
rwrist 5.17616
rhand -14.6474 14.6371
rfingers 7.12502
rthumb 11.5048 -15.0272
lclavicle 1.59525e-014 7.95139e-016
lhumerus -30.4741 2.60753 85.9442
lradius 32.7669
lwrist -3.17576
lhand -14.1052 26.2637
lfingers 7.12502
lthumb 12.0277 55.8981
rfemur -34.6347 1.66525 11.0989
rtibia 41.7692
rfoot -4.42075 -7.57785
rtoes 2.06799
lfemur -0.00814663 -2.10966 -34.9516
ltibia 26.6569
lfoot -19.7884 -2.99876
ltoes 5.34495
75
root -8.47654 17.0461 -17.5837 0.0737716 -2.57478 5.7359
lowerback 6.54606 -0.00434677 -6.07616
upperback -0.664189 -0.465065 0.637214
thorax -4.31928 -0.0787898 4.1295
lowerneck -14.9589 -2.97281 -11.1302
upperneck 23.0623 -2.39847 4.34435
head 10.0184 -1.5915 3.08413
rclavicle 8.19987e-016 -2.38542e-015
rhumerus -39.1399 -12.5497 -77.689
rradius 32.332
rwrist 4.77057
rhand -14.8337 15.1144
rfingers 7.12502
rthumb 11.3252 -14.5598
lclavicle 8.19987e-016 -2.38542e-015
lhumerus -29.7323 2.29719 85.8003
lradius 32.6605
lwrist -1.58049
lhand -15.8737 19.9672
lfingers 7.12502
lthumb 10.322 49.6939
rfemur -34.6186 2.83254 10.3774
rtibia 38.1015
rfoot -2.70353 -8.18101
rtoes 4.39307
lfemur 1.16569 -2.18651 -34.9938
ltibia 25.7618
lfoot -19.788 -3.0517
ltoes 5.26508
76
root -8.47846 17.0344 -17.3523 0.231367 -1.97723 5.46438
lowerback 6.44563 -0.125704 -5.81668
upperback -0.567698 -0.594927 0.681756
thorax -4.14756 -0.156488 4.04034
lowerneck -15.016 -2.99036 -10.9255
upperneck 22.9372 -2.46072 4.31926
head 9.98519 -1.60121 3.03069
rclavicle -8.27441e-015 2.3059e-014
rhumerus -39.478 -13.0493 -77.4206
rradius 32.1772
rwrist 4.76799
rhand -15.0459 15.6338
rfingers 7.12502
rthumb 11.1205 -14.0515
lclavicle -8.27441e-015 2.3059e-014
lhumerus -29.0557 1.905 85.61
lradius 33.2041
lwrist -1.2773
lhand -16.2267 17.5837
lfingers 7.12502
lthumb 9.98147 47.3271
rfemur -34.294 4.17425 9.75917
rtibia 34.4732
rfoot -1.05619 -8.89578
rtoes 2.13001
lfemur 2.43056 -2.33503 -34.7292
ltibia 24.8634
lfoot -19.8224 -3.20237
ltoes 4.3247
77
root -8.47592 17.0083 -17.1133 0.281778 -1.68808 5.24531
lowerback 6.40863 -0.162553 -5.66502
upperback -0.423386 -0.619621 0.837342
thorax -3.97256 -0.179162 4.11814
lowerneck -15.2944 -3.0408 -10.9561
upperneck 22.8942 -2.46038 4.2118
head 10.0231 -1.61188 2.99546
rclavicle -7.20594e-015 -5.56597e-015
rhumerus -39.6768 -13.2651 -77.0006
rradius 31.8388
rwrist 4.5145
rhand -14.8959 15.3479
rfingers 7.12502
rthumb 11.2652 -14.3296
lclavicle -7.20594e-015 -5.56597e-015
lhumerus -28.5264 2.17363 85.4895
lradius 34.5329
lwrist -2.89773
lhand -15.4531 20.7856
lfingers 7.12502
lthumb 10.7278 50.4917
rfemur -33.9026 5.53181 9.10593
rtibia 30.9925
rfoot -0.277848 -9.30852
rtoes 2.56939
lfemur 3.73844 -2.48079 -34.6001
ltibia 24.0563
lfoot -19.845 -3.12571
ltoes 3.72755
78
root -8.46987 16.9794 -16.8621 0.243168 -1.49106 5.25317
lowerback 6.35261 -0.229654 -5.69087
upperback -0.361659 -0.70239 0.928982
thorax -3.86582 -0.223569 4.23508
lowerneck -15.2581 -3.05802 -11.0818
upperneck 22.8177 -2.43594 4.13675
head 9.98926 -1.61842 2.99163
rclavicle 2.85753e-015 -7.95139e-016
rhumerus -40.0465 -13.4136 -76.5641
rradius 31.3125
rwrist 4.23892
rhand -14.494 15.0047
rfingers 7.12502
rthumb 11.6528 -14.6513
lclavicle 2.85753e-015 -7.95139e-016
lhumerus -28.2667 2.58203 85.319
lradius 35.2168
lwrist -3.36255
lhand -15.6324 21.0183
lfingers 7.12502
lthumb 10.5547 50.7333
rfemur -33.4316 6.67006 8.25111
rtibia 27.6779
rfoot -0.46016 -9.10121
rtoes 3.31784
lfemur 5.0942 -2.64812 -34.7546
ltibia 23.3883
lfoot -19.8306 -3.11389
ltoes 3.14426
